<svg width="29" height="29" viewBox="0 0 29 29" fill="none" xmlns="http://www.w3.org/2000/svg">
<rect x="1" y="1" width="27" height="27" rx="13.5" fill="#323E36" fill-opacity="0.5"/>
<rect x="1" y="1" width="27" height="27" rx="13.5" stroke="#FAFAFA" stroke-width="2"/>
<path fill-rule="evenodd" clip-rule="evenodd" d="M12.6482 22H16.3515C18.9523 22 20.2532 22 21.1873 21.3875C21.5905 21.1235 21.9377 20.7825 22.209 20.3842C22.8332 19.4675 22.8332 18.19 22.8332 15.6367C22.8332 13.0834 22.8332 11.8059 22.209 10.8892C21.9377 10.4909 21.5905 10.1499 21.1873 9.88587C20.5873 9.49171 19.8357 9.35087 18.6848 9.30087C18.1357 9.30087 17.6632 8.89254 17.5557 8.36337C17.4735 7.97576 17.2601 7.6284 16.9514 7.38C16.6427 7.13159 16.2577 6.99738 15.8615 7.00004H13.1382C12.3148 7.00004 11.6057 7.57087 11.444 8.36337C11.3365 8.89254 10.864 9.30087 10.3148 9.30087C9.16484 9.35087 8.41317 9.49254 7.81234 9.88587C7.40945 10.15 7.06257 10.4909 6.7915 10.8892C6.1665 11.8059 6.1665 13.0825 6.1665 15.6367C6.1665 18.1909 6.1665 19.4667 6.79067 20.3842C7.06067 20.7809 7.40734 21.1217 7.81234 21.3875C8.7465 22 10.0473 22 12.6482 22ZM14.4998 12.2275C12.5823 12.2275 11.0273 13.7534 11.0273 15.6359C11.0273 17.5184 12.5832 19.0467 14.4998 19.0467C16.4165 19.0467 17.9723 17.52 17.9723 15.6375C17.9723 13.755 16.4165 12.2275 14.4998 12.2275ZM14.4998 13.5909C13.3498 13.5909 12.4165 14.5067 12.4165 15.6367C12.4165 16.7659 13.3498 17.6817 14.4998 17.6817C15.6498 17.6817 16.5832 16.7659 16.5832 15.6367C16.5832 14.5075 15.6498 13.5909 14.4998 13.5909ZM18.4348 12.9092C18.4348 12.5325 18.7457 12.2275 19.1298 12.2275H20.0548C20.4382 12.2275 20.7498 12.5325 20.7498 12.9092C20.7481 13.0916 20.674 13.2659 20.5438 13.3937C20.4137 13.5215 20.2381 13.5924 20.0557 13.5909H19.1298C19.0394 13.5918 18.9498 13.5748 18.8659 13.541C18.7821 13.5073 18.7057 13.4573 18.6412 13.394C18.5766 13.3307 18.5252 13.2553 18.4898 13.1721C18.4544 13.0889 18.4357 12.9996 18.4348 12.9092Z" fill="#FAFAFA"/>
</svg>
