<svg width="31" height="31" viewBox="0 0 31 31" fill="none" xmlns="http://www.w3.org/2000/svg">
<rect width="30" height="30" transform="translate(0.5 0.489258)" fill="#FAFAFA"/>
<path d="M11.9411 7.24926C13.5248 4.40926 14.3161 2.98926 15.4998 2.98926C16.6836 2.98926 17.4748 4.40926 19.0586 7.24926L19.4686 7.98426C19.9186 8.79176 20.1436 9.19551 20.4936 9.46176C20.8436 9.72801 21.2811 9.82676 22.1561 10.0243L22.9511 10.2043C26.0261 10.9005 27.5623 11.248 27.9286 12.4243C28.2936 13.5993 27.2461 14.8255 25.1498 17.2768L24.6073 17.9105C24.0123 18.6068 23.7136 18.9555 23.5798 19.3855C23.4461 19.8168 23.4911 20.2818 23.5811 21.2105L23.6636 22.0568C23.9798 25.328 24.1386 26.963 23.1811 27.6893C22.2236 28.4155 20.7836 27.753 17.9061 26.428L17.1598 26.0855C16.3423 25.708 15.9336 25.5205 15.4998 25.5205C15.0661 25.5205 14.6573 25.708 13.8398 26.0855L13.0948 26.428C10.2161 27.753 8.77606 28.4155 7.81981 27.6905C6.86106 26.963 7.01981 25.328 7.33606 22.0568L7.41856 21.2118C7.50856 20.2818 7.55356 19.8168 7.41856 19.3868C7.28606 18.9555 6.98731 18.6068 6.39231 17.9118L5.84981 17.2768C3.75356 14.8268 2.70606 13.6005 3.07106 12.4243C3.43606 11.248 4.97481 10.8993 8.04981 10.2043L8.84481 10.0243C9.71856 9.82676 10.1548 9.72801 10.5061 9.46176C10.8573 9.19551 11.0811 8.79176 11.5311 7.98426L11.9411 7.24926Z" fill="#216CFA" stroke="#216CFA" stroke-width="1.5"/>
</svg>
