<svg width="25" height="26" viewBox="0 0 25 26" fill="none" xmlns="http://www.w3.org/2000/svg">
<path d="M8.44391 19.9966C5.51891 17.7424 2.0835 15.0955 2.0835 10.507C2.0835 5.44137 7.81266 1.84866 12.5002 6.7195L14.5835 8.80075C14.7316 8.93875 14.9275 9.01387 15.1299 9.0103C15.3323 9.00673 15.5254 8.92474 15.6685 8.7816C15.8117 8.63846 15.8937 8.44535 15.8972 8.24296C15.9008 8.04056 15.8257 7.84468 15.6877 7.69658L13.6772 5.68304C18.0929 2.45075 22.9168 5.85908 22.9168 10.507C22.9168 15.0955 19.4814 17.7424 16.5564 19.9966C16.2509 20.2306 15.9536 20.4612 15.6647 20.6882C14.5835 21.5403 13.5418 22.3435 12.5002 22.3435C11.4585 22.3435 10.4168 21.5414 9.33558 20.6872C9.046 20.4608 8.74877 20.2306 8.44391 19.9966Z" fill="#323E36" fill-opacity="0.3"/>
</svg>
