<svg width="20" height="21" viewBox="0 0 20 21" fill="none" xmlns="http://www.w3.org/2000/svg">
<path d="M6.75484 16.1953C4.41484 14.392 1.6665 12.2745 1.6665 8.60364C1.6665 4.55114 6.24984 1.67698 9.99984 5.57364L11.6665 7.23864C11.785 7.34904 11.9417 7.40915 12.1036 7.40629C12.2655 7.40343 12.42 7.33784 12.5345 7.22333C12.649 7.10882 12.7146 6.95433 12.7175 6.79241C12.7203 6.63049 12.6602 6.47379 12.5498 6.35531L10.9415 4.74448C14.474 2.15864 18.3332 4.88531 18.3332 8.60364C18.3332 12.2745 15.5848 14.392 13.2448 16.1953C13.0004 16.3825 12.7626 16.567 12.5315 16.7486C11.6665 17.4303 10.8332 18.0728 9.99984 18.0728C9.1665 18.0728 8.33317 17.4311 7.46817 16.7478C7.2365 16.5667 6.99873 16.3825 6.75484 16.1953Z" fill="#216CFA"/>
</svg>
