<svg width="124" height="125" viewBox="0 0 124 125" fill="none" xmlns="http://www.w3.org/2000/svg">
<g filter="url(#filter0_d_183_646)">
<rect x="4" y="0.489258" width="116" height="116" rx="3" fill="#323E36" fill-opacity="0.15"/>
<g clip-path="url(#clip0_183_646)">
<path d="M62.6666 52.9713C62.8523 53.3722 62.9422 53.8108 62.9293 54.2524L62.8793 55.6996C62.8782 55.8121 62.912 55.9222 62.9761 56.0148C63.0402 56.1073 63.1315 56.1776 63.2372 56.2161C63.343 56.2546 63.4581 56.2594 63.5667 56.2297C63.6752 56.2 63.7719 56.1374 63.8434 56.0505L64.7354 54.9098C65.0097 54.5643 65.3607 54.2875 65.7606 54.1013C66.1605 53.9151 66.5983 53.8246 67.0392 53.837L68.4873 53.8873C68.5994 53.8876 68.7087 53.8533 68.8006 53.7891C68.8924 53.7249 68.9622 53.634 69.0006 53.5287C69.0389 53.4235 69.0438 53.3089 69.0147 53.2008C68.9856 53.0926 68.9239 52.996 68.8379 52.9242L68.814 52.908L67.6723 52.0157C67.3266 51.7418 67.0494 51.3911 66.8627 50.9914C66.6761 50.5917 66.5851 50.154 66.597 49.7131L66.6479 48.2662C66.6494 48.1534 66.6157 48.043 66.5516 47.9502C66.4874 47.8573 66.3961 47.7868 66.29 47.7482C66.184 47.7096 66.0687 47.7049 65.9599 47.7348C65.8511 47.7647 65.7543 47.8277 65.6829 47.915L64.7909 49.0557L64.769 49.0839C64.4978 49.4194 64.1537 49.6887 63.7629 49.8713C63.372 50.054 62.9447 50.1452 62.5134 50.138L61.0653 50.0877C60.9533 50.0875 60.8439 50.1218 60.7521 50.186C60.6602 50.2501 60.5904 50.341 60.5521 50.4463C60.5138 50.5516 60.5088 50.6661 60.5379 50.7743C60.567 50.8825 60.6288 50.979 60.7147 51.0509L61.8564 51.9432C62.2032 52.2184 62.4795 52.5701 62.6666 52.9713ZM69.0312 59.3519L69.6661 59.8469L69.6789 59.8558C69.715 59.8855 69.7437 59.9232 69.7629 59.9659C69.782 60.0086 69.791 60.0551 69.7891 60.1018C69.7873 60.1486 69.7746 60.1943 69.7521 60.2353C69.7297 60.2763 69.698 60.3116 69.6597 60.3383C69.6081 60.374 69.5466 60.3925 69.4839 60.3914L68.6802 60.3628C68.435 60.356 68.1915 60.4063 67.9691 60.5099C67.7467 60.6135 67.5514 60.7674 67.3989 60.9596L66.9045 61.5927C66.8648 61.6411 66.8111 61.676 66.7508 61.6926C66.6904 61.7091 66.6264 61.7065 66.5676 61.6851C66.5088 61.6637 66.458 61.6245 66.4224 61.5731C66.3869 61.5216 66.3681 61.4603 66.3689 61.3977L66.3962 60.5946C66.4034 60.3491 66.3533 60.1053 66.2499 59.8826C66.1464 59.6598 65.9924 59.4642 65.8002 59.3114L65.1665 58.8157C65.1303 58.786 65.1016 58.7484 65.0824 58.7057C65.0633 58.663 65.0543 58.6165 65.0562 58.5697C65.0581 58.523 65.0707 58.4773 65.0932 58.4363C65.1156 58.3952 65.1473 58.36 65.1856 58.3332C65.2372 58.2976 65.2987 58.279 65.3614 58.2801L66.1651 58.3087C66.4081 58.3126 66.6488 58.2604 66.8684 58.1561C67.088 58.0519 67.2805 57.8983 67.4311 57.7075L67.9267 57.0738C67.9664 57.0253 68.0201 56.9904 68.0805 56.9739C68.1408 56.9573 68.2048 56.9599 68.2636 56.9813C68.3225 57.0027 68.3732 57.0419 68.4088 57.0934C68.4444 57.1448 68.4631 57.2061 68.4623 57.2687L68.435 58.0718C68.4284 58.3169 68.4788 58.5602 68.5825 58.7825C68.6861 59.0047 68.8391 59.1994 69.0312 59.3519ZM64.7782 43.2109L65.8905 40.155L59.5475 37.8464C59.3606 37.7783 59.1543 37.7873 58.9741 37.8714C58.7938 37.9555 58.6543 38.1077 58.5863 38.2946L55.7646 46.0471L63.5189 48.8694C63.6989 48.759 63.8557 48.6216 63.9892 48.4574L64.0066 48.4361L64.9028 47.2894L64.9106 47.2795C65.1135 47.0324 65.388 46.8544 65.6964 46.77C66.0048 46.6856 66.3317 46.6989 66.6321 46.8083C66.9326 46.9176 67.1916 47.1175 67.3736 47.3804C67.5555 47.6433 67.6514 47.9562 67.648 48.2758L67.6476 48.2885L67.5968 49.7439C67.5911 49.9642 67.6253 50.1831 67.6968 50.39L68.9203 50.8354L71.742 43.0829C71.81 42.896 71.801 42.6897 71.7169 42.5094C71.6329 42.3291 71.4806 42.1896 71.2937 42.1216L69.6492 41.5231L68.1953 45.5177C68.1273 45.7046 67.9878 45.8569 67.8075 45.9409C67.6272 46.025 67.4209 46.034 67.234 45.966C67.0471 45.8979 66.8949 45.7584 66.8108 45.5782C66.7267 45.3979 66.7177 45.1916 66.7858 45.0047L68.2397 41.01L67.3 40.668L66.1878 43.7239C66.1197 43.9108 65.9802 44.0631 65.8 44.1471C65.6197 44.2312 65.4134 44.2402 65.2265 44.1722C65.0396 44.1041 64.8873 43.9646 64.8033 43.7844C64.7192 43.6041 64.7102 43.3978 64.7782 43.2109ZM60.293 49.2916L55.2516 47.4566L54.6523 49.103C54.4482 49.6637 54.4753 50.2826 54.7275 50.8234C54.9797 51.3642 55.4364 51.7827 55.9971 51.9868L58.5813 52.9274L57.3849 56.2144C57.2035 56.7129 57.2275 57.263 57.4516 57.7437C57.6758 58.2244 58.0818 58.5964 58.5802 58.7778C59.0787 58.9593 59.6288 58.9352 60.1095 58.7111C60.5902 58.4869 60.9622 58.0809 61.1436 57.5825L61.8841 55.5481L61.9305 54.2219L61.9299 54.2207C61.9381 53.9354 61.8799 53.6522 61.7599 53.3934C61.6399 53.1345 61.4613 52.9071 61.2383 52.7292L60.0898 51.8323L60.0802 51.8235C59.8872 51.6647 59.7356 51.4615 59.6385 51.2313C59.5413 51.0011 59.5015 50.7507 59.5224 50.5017C59.5434 50.2527 59.6244 50.0125 59.7586 49.8017C59.8929 49.5909 60.0762 49.4159 60.293 49.2916Z" fill="#323E36" fill-opacity="0.5"/>
</g>
<path d="M38.0898 71.9092V74.2139H39.418V74.7314H38.0898V77.124H37.4746V71.9092H38.0898ZM35.7461 72.5635C35.7559 74.7314 34.1738 76.3428 31.6738 77.085L31.4199 76.5771C33.5488 75.9473 34.9502 74.6875 35.0918 73.0908H31.7812V72.5635H35.7461ZM35.3945 77.2217C37.1133 77.2217 38.1875 77.8369 38.1875 78.8623C38.1875 79.8877 37.1133 80.4932 35.3945 80.4932C33.6855 80.4932 32.5918 79.8877 32.6016 78.8623C32.5918 77.8369 33.6855 77.2217 35.3945 77.2217ZM35.3945 77.7295C34.0664 77.7295 33.207 78.1689 33.207 78.8623C33.207 79.5459 34.0664 79.9854 35.3945 79.9854C36.7129 79.9854 37.5918 79.5459 37.5918 78.8623C37.5918 78.1689 36.7129 77.7295 35.3945 77.7295ZM42.3457 72.5537C43.7031 72.5537 44.6406 73.3643 44.6504 74.5459C44.6406 75.7373 43.7031 76.5381 42.3457 76.5381C40.998 76.5381 40.041 75.7373 40.041 74.5459C40.041 73.3643 40.998 72.5537 42.3457 72.5537ZM42.3457 73.1006C41.3594 73.1006 40.6367 73.7061 40.6465 74.5459C40.6367 75.3857 41.3594 76.001 42.3457 75.9912C43.332 76.001 44.0449 75.3857 44.0449 74.5459C44.0449 73.7061 43.332 73.1006 42.3457 73.1006ZM46.5352 71.9092V80.5322H45.9199V71.9092H46.5352ZM39.5723 78.042C41.1836 78.0518 43.3906 78.042 45.3242 77.749L45.373 78.2178C43.3809 78.5889 41.2324 78.5889 39.6699 78.5889L39.5723 78.042ZM57.4688 78.8818V79.4189H49.5781V78.8818H53.1816V76.7627H50.3105V76.2549H51.7168V73.2959H50.3008V72.7783H56.6777V73.2959H55.2617V76.2549H56.668V76.7627H53.7871V78.8818H57.4688ZM52.332 76.2549H54.6562V73.2959H52.332V76.2549ZM61.9395 73.2178C61.9395 74.7607 63.8145 76.0693 65.1719 76.3232L64.8691 76.8506C63.6533 76.5479 62.1738 75.6055 61.627 74.2822C61.0801 75.6055 59.6006 76.5479 58.3848 76.8506L58.0918 76.3232C59.4492 76.0596 61.2949 74.7705 61.3047 73.2178V72.5342H61.9395V73.2178ZM65.6113 78.7939V79.3115H57.7207V78.7939H65.6113ZM72.9629 71.9092V80.5322H72.3574V75.7471H70.4238V75.2295H72.3574V71.9092H72.9629ZM66.9082 77.8857C68.6172 77.8955 69.6426 77.8467 70.8438 77.6123L70.9219 78.1396C69.6719 78.3545 68.6367 78.4131 66.9082 78.4131H66.2637V72.7197H70.2871V73.2373H66.8887V75.1416H69.877V75.6592H66.8887V77.8857H66.9082ZM83.7695 76.0596V76.5869H75.918V76.0596H83.7695ZM82.8418 74.6533V75.1611H76.9238V72.29H82.7832V72.8174H77.5293V74.6533H82.8418ZM79.8438 77.4072C81.6797 77.417 82.793 77.9736 82.793 78.96C82.793 79.9463 81.6797 80.4932 79.8438 80.4932C77.9883 80.4932 76.875 79.9463 76.875 78.96C76.875 77.9736 77.9883 77.417 79.8438 77.4072ZM79.8438 77.9053C78.3984 77.915 77.5 78.3057 77.5 78.96C77.5 79.6143 78.3984 79.9951 79.8438 79.9951C81.2695 79.9951 82.1777 79.6143 82.1777 78.96C82.1777 78.3057 81.2695 77.915 79.8438 77.9053ZM91.9316 76.6846V77.2119H84.0508V76.6846H87.6836V75.6787H85.0859V73.667H90.291V72.6514H85.0566V72.1436H90.9062V74.1455H85.6914V75.1709H91.0918V75.6787H88.2891V76.6846H91.9316ZM90.9551 77.9248V80.4248H90.3301V78.4424H84.9297V77.9248H90.9551Z" fill="#323E36" fill-opacity="0.3"/>
</g>
<defs>
<filter id="filter0_d_183_646" x="0" y="0.489258" width="124" height="124" filterUnits="userSpaceOnUse" color-interpolation-filters="sRGB">
<feFlood flood-opacity="0" result="BackgroundImageFix"/>
<feColorMatrix in="SourceAlpha" type="matrix" values="0 0 0 0 0 0 0 0 0 0 0 0 0 0 0 0 0 0 127 0" result="hardAlpha"/>
<feOffset dy="4"/>
<feGaussianBlur stdDeviation="2"/>
<feComposite in2="hardAlpha" operator="out"/>
<feColorMatrix type="matrix" values="0 0 0 0 0 0 0 0 0 0 0 0 0 0 0 0 0 0 0.25 0"/>
<feBlend mode="normal" in2="BackgroundImageFix" result="effect1_dropShadow_183_646"/>
<feBlend mode="normal" in="SourceGraphic" in2="effect1_dropShadow_183_646" result="shape"/>
</filter>
<clipPath id="clip0_183_646">
<rect width="24" height="24" fill="white" transform="translate(54.8281 34) rotate(20)"/>
</clipPath>
</defs>
</svg>
