<svg width="17" height="15" viewBox="0 0 17 15" fill="none" xmlns="http://www.w3.org/2000/svg">
<path d="M13.0079 2.27346C14.1783 3.44372 14.8477 5.02329 14.8745 6.67817C14.9013 8.33304 14.2835 9.93349 13.1517 11.1411L13.0079 11.2898L10.0024 14.2946C9.62107 14.6757 9.10912 14.8976 8.57027 14.9153C8.03143 14.9331 7.50598 14.7454 7.10037 14.3902L6.99837 14.2946L3.99221 11.2891C2.79665 10.0936 2.125 8.47205 2.125 6.78129C2.125 5.09052 2.79665 3.46901 3.99221 2.27346C5.18776 1.0779 6.80927 0.40625 8.50004 0.40625C10.1908 0.40625 11.8123 1.0779 13.0079 2.27346ZM8.50004 4.65629C8.22098 4.65629 7.94465 4.71125 7.68684 4.81804C7.42902 4.92484 7.19476 5.08136 6.99744 5.27869C6.80011 5.47601 6.64359 5.71027 6.5368 5.96809C6.43 6.2259 6.37504 6.50223 6.37504 6.78129C6.37504 7.06035 6.43 7.33667 6.5368 7.59449C6.64359 7.85231 6.80011 8.08657 6.99744 8.28389C7.19476 8.48122 7.42902 8.63774 7.68684 8.74453C7.94465 8.85132 8.22098 8.90629 8.50004 8.90629C9.06363 8.90629 9.60413 8.68241 10.0026 8.28389C10.4012 7.88538 10.625 7.34487 10.625 6.78129C10.625 6.2177 10.4012 5.6772 10.0026 5.27869C9.60413 4.88017 9.06363 4.65629 8.50004 4.65629Z" fill="#216CFA"/>
</svg>
