<svg width="26" height="25" viewBox="0 0 26 25" fill="none" xmlns="http://www.w3.org/2000/svg">
<path d="M8.56842 19.0073C5.64342 16.7532 2.20801 14.1063 2.20801 9.51774C2.20801 4.45211 7.93717 0.859405 12.6247 5.73024L14.708 7.81149C14.8561 7.94949 15.052 8.02462 15.2544 8.02105C15.4568 8.01747 15.6499 7.93548 15.793 7.79234C15.9362 7.64921 16.0182 7.4561 16.0217 7.2537C16.0253 7.0513 15.9502 6.85542 15.8122 6.70732L13.8018 4.69378C18.2174 1.46149 23.0413 4.86982 23.0413 9.51774C23.0413 14.1063 19.6059 16.7532 16.6809 19.0073C16.3754 19.2413 16.0781 19.4719 15.7893 19.699C14.708 20.5511 13.6663 21.3542 12.6247 21.3542C11.583 21.3542 10.5413 20.5521 9.46009 19.6979C9.17051 19.4716 8.87329 19.2413 8.56842 19.0073Z" fill="#323E36"/>
</svg>
