<svg width="26" height="25" viewBox="0 0 26 25" fill="none" xmlns="http://www.w3.org/2000/svg">
<path d="M20.6667 21.875H6.08333C5.51042 21.875 5.02014 21.6712 4.6125 21.2635C4.20486 20.8559 4.00069 20.3653 4 19.7917V5.20833C4 4.63542 4.20417 4.14514 4.6125 3.7375C5.02083 3.32986 5.51111 3.12569 6.08333 3.125H20.6667C21.2396 3.125 21.7302 3.32917 22.1385 3.7375C22.5469 4.14583 22.7507 4.63611 22.75 5.20833V19.7917C22.75 20.3646 22.5462 20.8552 22.1385 21.2635C21.7309 21.6719 21.2403 21.8757 20.6667 21.875ZM7.125 14.5833H19.625V12.5H7.125V14.5833ZM7.125 17.7083H19.625V16.1458H7.125V17.7083Z" fill="#323E36"/>
</svg>
