<svg width="26" height="25" viewBox="0 0 26 25" fill="none" xmlns="http://www.w3.org/2000/svg">
<path d="M12.8753 12.4998C11.7295 12.4998 10.7486 12.0919 9.93262 11.2759C9.11664 10.4599 8.70866 9.479 8.70866 8.33317C8.70866 7.18734 9.11664 6.20643 9.93262 5.39046C10.7486 4.57449 11.7295 4.1665 12.8753 4.1665C14.0212 4.1665 15.0021 4.57449 15.818 5.39046C16.634 6.20643 17.042 7.18734 17.042 8.33317C17.042 9.479 16.634 10.4599 15.818 11.2759C15.0021 12.0919 14.0212 12.4998 12.8753 12.4998ZM4.54199 18.7498V17.9165C4.54199 17.3262 4.69408 16.7839 4.99824 16.2894C5.30241 15.795 5.70588 15.4172 6.20866 15.1561C7.28505 14.6179 8.3788 14.2144 9.48991 13.9457C10.601 13.6769 11.7295 13.5422 12.8753 13.5415C14.0212 13.5408 15.1496 13.6755 16.2607 13.9457C17.3719 14.2158 18.4656 14.6193 19.542 15.1561C20.0455 15.4165 20.4493 15.7943 20.7534 16.2894C21.0576 16.7846 21.2094 17.3269 21.2087 17.9165V18.7498C21.2087 19.3228 21.0048 19.8134 20.5972 20.2217C20.1896 20.63 19.6989 20.8339 19.1253 20.8332H6.62533C6.05241 20.8332 5.56213 20.6294 5.15449 20.2217C4.74685 19.8141 4.54269 19.3234 4.54199 18.7498Z" fill="#323E36"/>
</svg>
