<svg width="26" height="25" viewBox="0 0 26 25" fill="none" xmlns="http://www.w3.org/2000/svg">
<path d="M4.79199 19.7918V10.4168C4.79199 10.087 4.86595 9.77447 5.01387 9.47933C5.16178 9.18419 5.3656 8.94113 5.62533 8.75016L11.8753 4.06266C12.2399 3.78489 12.6566 3.646 13.1253 3.646C13.5941 3.646 14.0107 3.78489 14.3753 4.06266L20.6253 8.75016C20.8857 8.94113 21.0899 9.18419 21.2378 9.47933C21.3857 9.77447 21.4594 10.087 21.4587 10.4168V19.7918C21.4587 20.3647 21.2545 20.8554 20.8462 21.2637C20.4378 21.672 19.9475 21.8759 19.3753 21.8752H16.2503C15.9552 21.8752 15.708 21.7752 15.5087 21.5752C15.3094 21.3752 15.2094 21.1279 15.2087 20.8335V15.6252C15.2087 15.33 15.1087 15.0828 14.9087 14.8835C14.7087 14.6842 14.4614 14.5842 14.167 14.5835H12.0837C11.7885 14.5835 11.5413 14.6835 11.342 14.8835C11.1427 15.0835 11.0427 15.3307 11.042 15.6252V20.8335C11.042 21.1286 10.942 21.3762 10.742 21.5762C10.542 21.7762 10.2948 21.8759 10.0003 21.8752H6.87533C6.30241 21.8752 5.81213 21.6713 5.40449 21.2637C4.99685 20.8561 4.79269 20.3654 4.79199 19.7918Z" fill="#323E36"/>
</svg>
