<svg width="32" height="31" viewBox="0 0 32 31" fill="none" xmlns="http://www.w3.org/2000/svg">
<g clip-path="url(#clip0_183_428)">
<path d="M16.6666 18.9713C16.8523 19.3722 16.9422 19.8108 16.9293 20.2524L16.8793 21.6996C16.8782 21.8121 16.912 21.9222 16.9761 22.0148C17.0402 22.1073 17.1315 22.1776 17.2372 22.2161C17.343 22.2546 17.4581 22.2594 17.5667 22.2297C17.6752 22.2 17.7719 22.1374 17.8434 22.0505L18.7354 20.9098C19.0097 20.5643 19.3607 20.2875 19.7606 20.1013C20.1605 19.9151 20.5983 19.8246 21.0392 19.837L22.4873 19.8873C22.5994 19.8876 22.7087 19.8533 22.8006 19.7891C22.8924 19.7249 22.9622 19.634 23.0006 19.5287C23.0389 19.4235 23.0438 19.3089 23.0147 19.2008C22.9856 19.0926 22.9239 18.996 22.8379 18.9242L22.814 18.908L21.6723 18.0157C21.3266 17.7418 21.0494 17.3911 20.8627 16.9914C20.6761 16.5917 20.5851 16.154 20.597 15.7131L20.6479 14.2662C20.6494 14.1534 20.6157 14.043 20.5516 13.9502C20.4874 13.8573 20.3961 13.7868 20.29 13.7482C20.184 13.7096 20.0687 13.7049 19.9599 13.7348C19.8511 13.7647 19.7543 13.8277 19.6829 13.915L18.7909 15.0557L18.769 15.0839C18.4978 15.4194 18.1537 15.6887 17.7629 15.8713C17.372 16.054 16.9447 16.1452 16.5134 16.138L15.0653 16.0877C14.9533 16.0875 14.8439 16.1218 14.7521 16.186C14.6602 16.2501 14.5904 16.341 14.5521 16.4463C14.5138 16.5516 14.5088 16.6661 14.5379 16.7743C14.567 16.8825 14.6288 16.979 14.7147 17.0509L15.8564 17.9432C16.2032 18.2184 16.4795 18.5701 16.6666 18.9713ZM23.0312 25.3519L23.6661 25.8469L23.6789 25.8558C23.715 25.8855 23.7437 25.9232 23.7629 25.9659C23.782 26.0086 23.791 26.0551 23.7891 26.1018C23.7873 26.1486 23.7746 26.1943 23.7521 26.2353C23.7297 26.2763 23.698 26.3116 23.6597 26.3383C23.6081 26.374 23.5466 26.3925 23.4839 26.3914L22.6802 26.3628C22.435 26.356 22.1915 26.4063 21.9691 26.5099C21.7467 26.6135 21.5514 26.7674 21.3989 26.9596L20.9045 27.5927C20.8648 27.6411 20.8111 27.676 20.7508 27.6926C20.6904 27.7091 20.6264 27.7065 20.5676 27.6851C20.5088 27.6637 20.458 27.6245 20.4224 27.5731C20.3869 27.5216 20.3681 27.4603 20.3689 27.3977L20.3962 26.5946C20.4034 26.3491 20.3533 26.1053 20.2499 25.8826C20.1464 25.6598 19.9924 25.4642 19.8002 25.3114L19.1665 24.8157C19.1303 24.786 19.1016 24.7484 19.0824 24.7057C19.0633 24.663 19.0543 24.6165 19.0562 24.5697C19.0581 24.523 19.0707 24.4773 19.0932 24.4363C19.1156 24.3952 19.1473 24.36 19.1856 24.3332C19.2372 24.2976 19.2987 24.279 19.3614 24.2801L20.1651 24.3087C20.4081 24.3126 20.6488 24.2604 20.8684 24.1561C21.088 24.0519 21.2805 23.8983 21.4311 23.7075L21.9267 23.0738C21.9664 23.0253 22.0201 22.9904 22.0805 22.9739C22.1408 22.9573 22.2048 22.9599 22.2636 22.9813C22.3225 23.0027 22.3732 23.0419 22.4088 23.0934C22.4444 23.1448 22.4631 23.2061 22.4623 23.2687L22.435 24.0718C22.4284 24.3169 22.4788 24.5602 22.5825 24.7825C22.6861 25.0047 22.8391 25.1994 23.0312 25.3519ZM18.7782 9.21087L19.8905 6.15499L13.5475 3.84636C13.3606 3.77833 13.1543 3.78733 12.9741 3.8714C12.7938 3.95546 12.6543 4.1077 12.5863 4.29461L9.76459 12.0471L17.5189 14.8694C17.6989 14.759 17.8557 14.6216 17.9892 14.4574L18.0066 14.4361L18.9028 13.2894L18.9106 13.2795C19.1135 13.0324 19.388 12.8544 19.6964 12.77C20.0048 12.6856 20.3317 12.6989 20.6321 12.8083C20.9326 12.9176 21.1916 13.1175 21.3736 13.3804C21.5555 13.6433 21.6514 13.9562 21.648 14.2758L21.6476 14.2885L21.5968 15.7439C21.5911 15.9642 21.6253 16.1831 21.6968 16.39L22.9203 16.8354L25.742 9.08289C25.81 8.89598 25.801 8.68969 25.7169 8.50942C25.6329 8.32914 25.4806 8.18964 25.2937 8.12161L23.6492 7.52308L22.1953 11.5177C22.1273 11.7046 21.9878 11.8569 21.8075 11.9409C21.6272 12.025 21.4209 12.034 21.234 11.966C21.0471 11.8979 20.8949 11.7584 20.8108 11.5782C20.7267 11.3979 20.7177 11.1916 20.7858 11.0047L22.2397 7.01004L21.3 6.66802L20.1878 9.72391C20.1197 9.91082 19.9802 10.0631 19.8 10.1471C19.6197 10.2312 19.4134 10.2402 19.2265 10.1722C19.0396 10.1041 18.8873 9.96463 18.8033 9.78435C18.7192 9.60408 18.7102 9.39779 18.7782 9.21087ZM14.293 15.2916L9.25156 13.4566L8.65234 15.103C8.44825 15.6637 8.47527 16.2826 8.72746 16.8234C8.97965 17.3642 9.43636 17.7827 9.99711 17.9868L12.5813 18.9274L11.3849 22.2144C11.2035 22.7129 11.2275 23.263 11.4516 23.7437C11.6758 24.2244 12.0818 24.5964 12.5802 24.7778C13.0787 24.9593 13.6288 24.9352 14.1095 24.7111C14.5902 24.4869 14.9622 24.0809 15.1436 23.5825L15.8841 21.5481L15.9305 20.2219L15.9299 20.2207C15.9381 19.9354 15.8799 19.6522 15.7599 19.3934C15.6399 19.1345 15.4613 18.9071 15.2383 18.7292L14.0898 17.8323L14.0802 17.8235C13.8872 17.6647 13.7356 17.4615 13.6385 17.2313C13.5413 17.0011 13.5015 16.7507 13.5224 16.5017C13.5434 16.2527 13.6244 16.0125 13.7586 15.8017C13.8929 15.5909 14.0762 15.4159 14.293 15.2916Z" fill="#323E36" fill-opacity="0.5"/>
</g>
<defs>
<clipPath id="clip0_183_428">
<rect width="24" height="24" fill="white" transform="translate(8.82812) rotate(20)"/>
</clipPath>
</defs>
</svg>
