<svg width="16" height="15" viewBox="0 0 16 15" fill="none" xmlns="http://www.w3.org/2000/svg">
<path d="M11.5975 6.98828L12.5425 6.04328C12.8725 5.71328 13.2925 5.53328 13.75 5.48828V4.73828L9.25 0.238281H1.75C0.9175 0.238281 0.25 0.905781 0.25 1.73828V12.2383C0.25 12.6361 0.408035 13.0176 0.68934 13.2989C0.970644 13.5802 1.35218 13.7383 1.75 13.7383H6.25V12.3358L6.3475 12.2383H1.75V1.73828H7V6.98828H11.5975ZM8.5 1.36328L12.625 5.48828H8.5V1.36328ZM12.3475 8.36078L13.8775 9.89078L9.28 14.4883H7.75V12.9583L12.3475 8.36078ZM15.1375 8.63078L14.4025 9.36578L12.8725 7.83578L13.6075 7.10078C13.75 6.95078 13.9975 6.95078 14.1475 7.10078L15.1375 8.09078C15.2875 8.24078 15.2875 8.48828 15.1375 8.63078Z" fill="#323E36"/>
</svg>
