<svg width="18" height="21" viewBox="0 0 18 21" fill="none" xmlns="http://www.w3.org/2000/svg">
<path d="M15.3641 3.12531C17.0164 4.77745 17.9614 7.00743 17.9993 9.34373C18.0372 11.68 17.1649 13.9395 15.5671 15.6443L15.3641 15.8543L11.1211 20.0963C10.5827 20.6343 9.85993 20.9476 9.09921 20.9727C8.33849 20.9978 7.59668 20.7327 7.02406 20.2313L6.88006 20.0963L2.63606 15.8533C0.948218 14.1655 0 11.8763 0 9.48931C0 7.10235 0.948218 4.81315 2.63606 3.12531C4.32389 1.43748 6.61309 0.489258 9.00006 0.489258C11.387 0.489258 13.6762 1.43748 15.3641 3.12531ZM9.00006 6.48931C8.60609 6.48931 8.21598 6.56691 7.85201 6.71767C7.48803 6.86844 7.15731 7.08942 6.87873 7.36799C6.60016 7.64657 6.37918 7.97729 6.22842 8.34126C6.07765 8.70524 6.00006 9.09535 6.00006 9.48931C6.00006 9.88328 6.07765 10.2734 6.22842 10.6374C6.37918 11.0013 6.60016 11.3321 6.87873 11.6106C7.15731 11.8892 7.48803 12.1102 7.85201 12.261C8.21598 12.4117 8.60609 12.4893 9.00006 12.4893C9.7957 12.4893 10.5588 12.1732 11.1214 11.6106C11.684 11.048 12.0001 10.285 12.0001 9.48931C12.0001 8.69366 11.684 7.9306 11.1214 7.36799C10.5588 6.80538 9.7957 6.48931 9.00006 6.48931Z" fill="#216CFA"/>
</svg>
