<svg width="27" height="27" viewBox="0 0 27 27" fill="none" xmlns="http://www.w3.org/2000/svg">
<path d="M9.94106 5.24926C11.5248 2.40926 12.3161 0.989258 13.4998 0.989258C14.6836 0.989258 15.4748 2.40926 17.0586 5.24926L17.4686 5.98426C17.9186 6.79176 18.1436 7.19551 18.4936 7.46176C18.8436 7.72801 19.2811 7.82676 20.1561 8.02426L20.9511 8.20426C24.0261 8.90051 25.5623 9.24801 25.9286 10.4243C26.2936 11.5993 25.2461 12.8255 23.1498 15.2768L22.6073 15.9105C22.0123 16.6068 21.7136 16.9555 21.5798 17.3855C21.4461 17.8168 21.4911 18.2818 21.5811 19.2105L21.6636 20.0568C21.9798 23.328 22.1386 24.963 21.1811 25.6893C20.2236 26.4155 18.7836 25.753 15.9061 24.428L15.1598 24.0855C14.3423 23.708 13.9336 23.5205 13.4998 23.5205C13.0661 23.5205 12.6573 23.708 11.8398 24.0855L11.0948 24.428C8.21606 25.753 6.77606 26.4155 5.81981 25.6905C4.86106 24.963 5.01981 23.328 5.33606 20.0568L5.41856 19.2118C5.50856 18.2818 5.55356 17.8168 5.41856 17.3868C5.28606 16.9555 4.98731 16.6068 4.39231 15.9118L3.84981 15.2768C1.75356 12.8268 0.706055 11.6005 1.07106 10.4243C1.43606 9.24801 2.97481 8.89926 6.04981 8.20426L6.84481 8.02426C7.71856 7.82676 8.15481 7.72801 8.50606 7.46176C8.85731 7.19551 9.08106 6.79176 9.53106 5.98426L9.94106 5.24926Z" fill="#216CFA" stroke="#216CFA" stroke-width="1.5"/>
</svg>
