<svg width="24" height="25" viewBox="0 0 24 25" fill="none" xmlns="http://www.w3.org/2000/svg">
  <g clip-path="url(#clip0_209_1608)">
    <path d="M10.7702 18.7895C9.28094 18.7895 7.8251 18.3479 6.58679 17.5205C5.34849 16.6931 4.38335 15.517 3.81342 14.1411C3.2435 12.7652 3.09438 11.2511 3.38492 9.79047C3.67547 8.32979 4.39263 6.98807 5.44572 5.93498C6.49881 4.88189 7.84053 4.16473 9.30121 3.87418C10.7619 3.58364 12.2759 3.73275 13.6518 4.30268C15.0278 4.87261 16.2038 5.83775 17.0312 7.07605C17.8586 8.31435 18.3002 9.7702 18.3002 11.2595C18.3002 12.2483 18.1055 13.2275 17.727 14.1411C17.3486 15.0547 16.794 15.8848 16.0948 16.584C15.3955 17.2832 14.5654 17.8379 13.6518 18.2163C12.7383 18.5947 11.7591 18.7895 10.7702 18.7895ZM10.7702 5.2395C9.58355 5.2395 8.42351 5.59139 7.43682 6.25068C6.45012 6.90997 5.68109 7.84704 5.22696 8.94339C4.77283 10.0398 4.65401 11.2462 4.88553 12.41C5.11704 13.5739 5.68848 14.643 6.5276 15.4821C7.36671 16.3213 8.43581 16.8927 9.5997 17.1242C10.7636 17.3557 11.97 17.2369 13.0663 16.7828C14.1627 16.3286 15.0998 15.5596 15.7591 14.5729C16.4183 13.5862 16.7702 12.4262 16.7702 11.2395C16.7702 9.6482 16.1381 8.12207 15.0129 6.99686C13.8877 5.87164 12.3615 5.2395 10.7702 5.2395Z" fill="#FAFAFA"/>
    
    <path d="M20 21.2392C19.9014 21.2397 19.8038 21.2205 19.7128 21.1827C19.6218 21.1449 19.5392 21.0893 19.47 21.0192L15.34 16.8892C15.2075 16.747 15.1354 16.559 15.1388 16.3647C15.1422 16.1704 15.2209 15.985 15.3583 15.8476C15.4958 15.7102 15.6811 15.6315 15.8754 15.628C16.0697 15.6246 16.2578 15.6967 16.4 15.8292L20.53 19.9592C20.6704 20.0998 20.7493 20.2905 20.7493 20.4892C20.7493 20.688 20.6704 20.8786 20.53 21.0192C20.4607 21.0893 20.3782 21.1449 20.2872 21.1827C20.1961 21.2205 20.0985 21.2397 20 21.2392Z" fill="#FAFAFA"/>
  </g>

  <defs>
    <clipPath id="clip0_209_1608">
      <rect width="24" height="24" fill="white" transform="translate(0 0.489258)"/>
    </clipPath>
  </defs>
</svg>
