<svg width="18" height="19" viewBox="0 0 18 19" fill="none" xmlns="http://www.w3.org/2000/svg">
<g clip-path="url(#clip0_226_799)">
<path d="M6.86493 5.04428C7.81518 3.34028 8.28993 2.48828 9.00018 2.48828C9.71043 2.48828 10.1852 3.34028 11.1354 5.04428L11.3814 5.48528C11.6514 5.96978 11.7864 6.21203 11.9964 6.37178C12.2064 6.53153 12.4689 6.59078 12.9939 6.70928L13.4709 6.81728C15.3159 7.23503 16.2377 7.44353 16.4574 8.14928C16.6764 8.85428 16.0479 9.59003 14.7902 11.0608L14.4647 11.441C14.1077 11.8588 13.9284 12.068 13.8482 12.326C13.7679 12.5848 13.7949 12.8638 13.8489 13.421L13.8984 13.9288C14.0882 15.8915 14.1834 16.8725 13.6089 17.3083C13.0344 17.744 12.1704 17.3465 10.4439 16.5515L9.99618 16.346C9.50568 16.1195 9.26043 16.007 9.00018 16.007C8.73993 16.007 8.49468 16.1195 8.00418 16.346L7.55718 16.5515C5.82993 17.3465 4.96593 17.744 4.39218 17.309C3.81693 16.8725 3.91218 15.8915 4.10193 13.9288L4.15143 13.4218C4.20543 12.8638 4.23243 12.5848 4.15143 12.3268C4.07193 12.068 3.89268 11.8588 3.53568 11.4418L3.21018 11.0608C1.95243 9.59078 1.32393 8.85503 1.54293 8.14928C1.76193 7.44353 2.68518 7.23428 4.53018 6.81728L5.00718 6.70928C5.53143 6.59078 5.79318 6.53153 6.00393 6.37178C6.21468 6.21203 6.34893 5.96978 6.61893 5.48528L6.86493 5.04428Z" stroke="#323E36" stroke-width="1.5"/>
</g>
<defs>
<clipPath id="clip0_226_799">
<rect width="18" height="18" fill="white" transform="translate(0 0.988281)"/>
</clipPath>
</defs>
</svg>
