<svg width="18" height="19" viewBox="0 0 18 19" fill="none" xmlns="http://www.w3.org/2000/svg">
<path d="M9 5.73926C8.60218 5.73926 8.22064 5.58122 7.93934 5.29992C7.65804 5.01861 7.5 4.63708 7.5 4.23926C7.5 3.84143 7.65804 3.4599 7.93934 3.1786C8.22064 2.89729 8.60218 2.73926 9 2.73926C9.39782 2.73926 9.77936 2.89729 10.0607 3.1786C10.342 3.4599 10.5 3.84143 10.5 4.23926C10.5 4.63708 10.342 5.01861 10.0607 5.29992C9.77936 5.58122 9.39782 5.73926 9 5.73926ZM9 10.9893C8.60218 10.9893 8.22064 10.8312 7.93934 10.5499C7.65804 10.2686 7.5 9.88708 7.5 9.48926C7.5 9.09143 7.65804 8.7099 7.93934 8.4286C8.22064 8.14729 8.60218 7.98926 9 7.98926C9.39782 7.98926 9.77936 8.14729 10.0607 8.4286C10.342 8.7099 10.5 9.09143 10.5 9.48926C10.5 9.88708 10.342 10.2686 10.0607 10.5499C9.77936 10.8312 9.39782 10.9893 9 10.9893ZM9 16.2393C8.60218 16.2393 8.22064 16.0812 7.93934 15.7999C7.65804 15.5186 7.5 15.1371 7.5 14.7393C7.5 14.3414 7.65804 13.9599 7.93934 13.6786C8.22064 13.3973 8.60218 13.2393 9 13.2393C9.39782 13.2393 9.77936 13.3973 10.0607 13.6786C10.342 13.9599 10.5 14.3414 10.5 14.7393C10.5 15.1371 10.342 15.5186 10.0607 15.7999C9.77936 16.0812 9.39782 16.2393 9 16.2393Z" fill="#323E36"/>
</svg>
