<svg width="14" height="15" viewBox="0 0 14 15" fill="none" xmlns="http://www.w3.org/2000/svg">
<path d="M7.00004 14.3197C10.73 14.3197 13.8303 11.226 13.8303 7.48947C13.8303 3.75947 10.7232 0.65918 6.99319 0.65918C3.2569 0.65918 0.170044 3.75947 0.170044 7.48947C0.170044 11.226 3.26347 14.3197 7.00004 14.3197ZM6.99376 8.49404C6.63862 8.49404 6.44462 8.28632 6.4309 7.93118L6.33719 4.62375C6.32376 4.25518 6.6049 3.99432 6.98662 3.99432C7.36176 3.99432 7.64947 4.26204 7.63633 4.63032L7.54233 7.93175C7.5289 8.29318 7.32804 8.49432 6.99347 8.49432M6.99347 10.9586C6.6049 10.9586 6.24319 10.6506 6.24319 10.2352C6.24319 9.81975 6.59833 9.51232 6.99347 9.51232C7.38176 9.51232 7.74319 9.81346 7.74319 10.2352C7.74319 10.6572 7.3749 10.9586 6.99347 10.9586Z" fill="#216CFA"/>
</svg>