
<svg width="375" height="812" viewBox="0 0 375 812" fill="none" xmlns="http://www.w3.org/2000/svg">
<path fill-rule="evenodd" clip-rule="evenodd" d="M207.181 335.927C200.251 334.059 192.866 335.037 186.652 338.646C180.438 342.254 175.903 348.198 174.046 355.169C170.745 367.561 176.782 386.446 181.721 398.764L197.994 403.149C208.395 394.966 223.011 381.647 226.312 369.255C228.169 362.284 227.197 354.856 223.609 348.606C220.022 342.356 214.112 337.795 207.181 335.927ZM197.678 371.599C195.203 370.932 193.093 369.304 191.811 367.071C190.53 364.839 190.183 362.186 190.846 359.697C191.509 357.207 193.129 355.084 195.348 353.796C197.567 352.507 200.205 352.158 202.68 352.825C205.155 353.492 207.266 355.121 208.547 357.353C209.828 359.585 210.176 362.238 209.512 364.727C209.184 365.96 208.617 367.116 207.845 368.128C207.072 369.141 206.109 369.99 205.01 370.629C203.912 371.267 202.698 371.681 201.44 371.847C200.182 372.014 198.904 371.93 197.678 371.599Z" fill="#FAFAFA"/>
<path d="M187.175 411.027C187.175 411.027 185.256 407.253 182.835 401.479L195.68 404.94C190.713 408.723 187.175 411.027 187.175 411.027Z" fill="#FAFAFA"/>
<path d="M154.723 411.005C150.881 411.005 147.766 414.138 147.766 418.003C147.766 421.867 150.881 425 154.723 425H175.594C176.874 425 177.913 423.956 177.913 422.668C177.913 421.379 176.874 420.335 175.594 420.335H154.723C153.442 420.335 152.404 419.291 152.404 418.003C152.404 416.714 153.442 415.67 154.723 415.67H184.87C186.15 415.67 187.189 414.626 187.189 413.338C187.189 412.05 186.15 411.005 184.87 411.005H154.723Z" fill="#FAFAFA"/>
<path d="M192.289 420.335C193.569 420.335 194.608 421.379 194.608 422.668C194.608 423.956 193.569 425 192.289 425H183.013C181.732 425 180.694 423.956 180.694 422.668C180.694 421.379 181.732 420.335 183.013 420.335H192.289Z" fill="#FAFAFA"/>
<path d="M149.434 446.958V452.378H154.707V446.958H156.147V460.923H147.969V446.958H149.434ZM149.434 459.604H154.707V453.647H149.434V459.604ZM165.498 444.883V466.416H164.009V454.819H160.64V465.293H159.175V445.371H160.64V453.501H164.009V444.883H165.498ZM187.148 455.967V457.285H178.237V461.899H176.675V457.285H167.446V455.967H187.148ZM184.951 464.561V465.903H170.059V459.653H171.572V464.561H184.951ZM177.261 445.469C181.851 445.469 184.805 447.104 184.805 449.766C184.805 452.402 181.851 454.014 177.261 454.014C172.695 454.014 169.717 452.402 169.741 449.766C169.717 447.104 172.695 445.469 177.261 445.469ZM177.261 446.763C173.745 446.763 171.353 447.935 171.353 449.766C171.353 451.548 173.745 452.72 177.261 452.72C180.801 452.72 183.193 451.548 183.193 449.766C183.193 447.935 180.801 446.763 177.261 446.763ZM206.187 444.883V466.416H204.673V444.883H206.187ZM201.841 445.42V465.244H200.352V454.526H195.347V453.208H200.352V445.42H201.841ZM196.812 447.593V448.887H190.22V459.775C193.613 459.775 195.627 459.641 198.032 459.116L198.203 460.435C195.688 460.972 193.613 461.069 190.049 461.094H188.73V447.593H196.812ZM225.859 444.883V466.44H224.321V444.883H225.859ZM214.482 446.592C217.656 446.592 219.927 449.497 219.927 454.038C219.927 458.579 217.656 461.484 214.482 461.484C211.284 461.484 209.038 458.579 209.038 454.038C209.038 449.497 211.284 446.592 214.482 446.592ZM214.482 447.959C212.163 447.959 210.527 450.449 210.527 454.038C210.527 457.651 212.163 460.117 214.482 460.117C216.802 460.117 218.413 457.651 218.413 454.038C218.413 450.449 216.802 447.959 214.482 447.959Z" fill="#FAFAFA"/>
</svg>
